<?xml version="1.0" encoding="UTF-8"?>
<svg xmlns="http://www.w3.org/2000/svg" version="1.1" viewBox="0 0 3195 198">
  <defs>
    <style>
      .cls-1 {
        fill: #66a3c9;
      }
    </style>
  </defs>
  <!-- Generator: Adobe Illustrator 28.7.1, SVG Export Plug-In . SVG Version: 1.2.0 Build 142)  -->
  <g>
    <g id="Layer_1">
      <g id="Layer_1-2" data-name="Layer_1">
        <g id="Layer_1-2">
          <g id="Layer_1-2-2" data-name="Layer_1-2">
            <g id="Layer_1-2-2">
              <path class="cls-1" d="M3190,125v77h-1600v-77c289,0,389-121,789-121,401.1-.2,500,121,811,121Z"/>
            </g>
          </g>
          <g id="Layer_1-3">
            <g id="Layer_1-2-2-2" data-name="Layer_1-2-2">
              <path class="cls-1" d="M3190,125v77h-1600v-77c289,0,389-121,789-121,401.1-.2,500,121,811,121Z"/>
            </g>
          </g>
          <g id="Layer_1-4">
            <g id="Layer_1-2-3">
              <path class="cls-1" d="M3190,125v77h-1600v-77c289,0,389-121,789-121,401.1-.2,500,121,811,121Z"/>
            </g>
          </g>
          <g id="Layer_1-5">
            <g id="Layer_1-2-4">
              <path class="cls-1" d="M3195,125v77h-1600v-77c289,0,389-121,789-121,401.1-.2,500,121,811,121Z"/>
            </g>
          </g>
          <g>
            <g id="Layer_1-6">
              <g id="Layer_1-2-5">
                <path class="cls-1" d="M1600,125v77H0v-77C289,125,389,4,789,4c401.1-.2,500,121,811,121Z"/>
              </g>
            </g>
            <g id="Layer_1-7">
              <g id="Layer_1-2-6">
                <path class="cls-1" d="M1600,125v77H0v-77C289,125,389,4,789,4c401.1-.2,500,121,811,121Z"/>
              </g>
            </g>
          </g>
        </g>
      </g>
    </g>
  </g>
</svg>