<?xml version="1.0" encoding="UTF-8"?>
<svg xmlns="http://www.w3.org/2000/svg" version="1.1" viewBox="0 0 3266 325">
  <defs>
    <style>
      .cls-1 {
        fill: #3c89f9;
      }
    </style>
  </defs>
  <!-- Generator: Adobe Illustrator 28.7.1, SVG Export Plug-In . SVG Version: 1.2.0 Build 142)  -->
  <g>
    <g id="Layer_1">
      <g id="Layer_1-2" data-name="Layer_1">
        <g id="Layer_1-2">
          <g id="Layer_1-2-2" data-name="Layer_1-2">
            <g id="Layer_1-2-2">
              <path class="cls-1" d="M3260.9,200.2v124.8h-1636.6v-124.8c295.6,0,397.9-196.2,807-196.2,410.3-.3,511.4,196.2,829.5,196.2Z"/>
            </g>
          </g>
          <g id="Layer_1-3">
            <g id="Layer_1-2-2-2" data-name="Layer_1-2-2">
              <path class="cls-1" d="M3260.9,200.2v124.8h-1636.6v-124.8c295.6,0,397.9-196.2,807-196.2,410.3-.3,511.4,196.2,829.5,196.2Z"/>
            </g>
          </g>
          <g id="Layer_1-4">
            <g id="Layer_1-2-3">
              <path class="cls-1" d="M3260.9,200.2v124.8h-1636.6v-124.8c295.6,0,397.9-196.2,807-196.2,410.3-.3,511.4,196.2,829.5,196.2Z"/>
            </g>
          </g>
          <g id="Layer_1-5">
            <g id="Layer_1-2-4">
              <path class="cls-1" d="M3266,200.2v124.8h-1636.6v-124.8c295.6,0,397.9-196.2,807-196.2,410.3-.3,511.4,196.2,829.5,196.2Z"/>
            </g>
          </g>
          <g>
            <g id="Layer_1-6">
              <g id="Layer_1-2-5">
                <path class="cls-1" d="M1634.6,200.2v124.8H-2v-124.8C293.6,200.2,395.9,4,805,4c410.3-.3,511.4,196.2,829.5,196.2Z"/>
              </g>
            </g>
            <g id="Layer_1-7">
              <g id="Layer_1-2-6">
                <path class="cls-1" d="M1634.6,200.2v124.8H-2v-124.8C293.6,200.2,395.9,4,805,4c410.3-.3,511.4,196.2,829.5,196.2Z"/>
              </g>
            </g>
          </g>
        </g>
      </g>
    </g>
  </g>
</svg>